<?xml version="1.0" encoding="utf-8"?>
<!-- Generator: Adobe Illustrator 22.0.1, SVG Export Plug-In . SVG Version: 6.00 Build 0)  -->
<svg version="1.1" id="Layer_1" xmlns="http://www.w3.org/2000/svg" xmlns:xlink="http://www.w3.org/1999/xlink" x="0px" y="0px"
	 viewBox="0 0 114.4568329 38" style="enable-background:new 0 0 114.4568329 38;" xml:space="preserve">
<style type="text/css">
	.st0{clip-path:url(#SVGID_2_);}
	.st1{clip-path:url(#SVGID_4_);fill:#DD083B;}
	.st2{clip-path:url(#SVGID_4_);fill:#1D1D1B;}
</style>
<g id="Artwork_11_1_">
	<g>
		<defs>
			<rect id="SVGID_1_" width="114.1535339" height="38"/>
		</defs>
		<clipPath id="SVGID_2_">
			<use xlink:href="#SVGID_1_"  style="overflow:visible;"/>
		</clipPath>
		<g class="st0">
			<defs>
				<rect id="SVGID_3_" y="0.0000592" width="114.1533966" height="37.999939"/>
			</defs>
			<clipPath id="SVGID_4_">
				<use xlink:href="#SVGID_3_"  style="overflow:visible;"/>
			</clipPath>
			<path class="st1" d="M15.7407207,0.0000488c-8.6793785,0-15.740716,7.0613689-15.740716,15.740716
				c0,4.2173462,1.6464647,8.1789303,4.636003,11.155283l11.1047125,11.103941l2.3939991-2.3935394L7.0306067,24.5026474
				c-2.3505359-2.3401184-3.6451504-5.4519711-3.6451504-8.7618828c0-6.8125687,5.5425243-12.3552351,12.3552647-12.3552351
				c6.8125687,0,12.3552361,5.5426664,12.3552361,12.3552351c0,3.3109665-1.2932453,6.4211941-3.6415253,8.7577744
				l-3.2956715,3.2955551l-8.7099705-8.7099438c-0.9163389-0.911972-1.4007206-2.068346-1.4007206-3.3433857
				c0-2.5875168,2.1049623-4.6926222,4.6926517-4.6926222c2.5874901,0,4.6926231,2.1051054,4.6926231,4.6926222
				c0,1.2573433-0.4914875,2.4385204-1.3839397,3.3262634l-0.2846413,0.2849846l2.3936844,2.3936844l0.2786198-0.2784481
				c1.5359364-1.5279179,2.3815861-3.5615635,2.3815861-5.7264843c0-4.454299-3.623806-8.0782433-8.0779324-8.0782433
				c-4.454299,0-8.0782452,3.6239448-8.0782452,8.0782433c0,2.163866,0.8494163,4.2012787,2.3917165,5.7372437l11.1045685,11.104084
				l5.6830215-5.6833344c2.9919357-2.9764938,4.6393394-6.9389935,4.6393394-11.1579933
				C31.4811211,7.0614176,24.419899,0.0000488,15.7407207,0.0000488"/>
			<path class="st2" d="M38.6844254,4.8736429h-1.293045V3.6403856h5.9277077c2.3472252,0,4.0180626,1.5515203,4.0180626,3.9782515
				c0,2.1684036-1.3327446,3.4413576-2.7051544,3.7396412v0.0398102c0,0,0.27845,0.1591311,0.4772491,0.5570412l2.0092735,3.9782505
				c0.1986542,0.4177742,0.4971085,0.4575844,0.9944763,0.4575844h0.27845v1.2331161h-0.6165428
				c-1.1341171,0-1.4722099-0.1391544-1.9296532-1.0541534l-2.0089302-3.9982538
				c-0.3779335-0.7358627-0.6365509-0.8353186-1.4123955-0.8353186h-2.3470802v5.8877258h-1.3924179V4.8736429z
				 M43.1797638,10.503067c1.6708679,0,2.7053223-1.0942755,2.7053223-2.8446183
				c0-1.7305121-1.0344543-2.7848058-2.685318-2.7848058h-3.1229248v5.6294241H43.1797638z"/>
			<path class="st2" d="M54.1802902,7.3799415c2.7647972,0,4.1970253,2.1284213,4.1970253,4.614943
				c0,0.2386379-0.039669,0.6762447-0.039669,0.6762447h-7.678196c0.039814,2.5261612,1.8101349,3.9782219,3.8787956,3.9782219
				c1.8301392,0,3.0037498-1.2331142,3.0037498-1.2331142l0.6563835,1.0143375c0,0-1.4520607,1.43223-3.7198067,1.43223
				c-2.9637947,0-5.231514-2.1482859-5.231514-5.2313719C49.2470589,9.3492327,51.4949417,7.3799415,54.1802902,7.3799415
				 M56.9849281,11.5969715c-0.0794792-2.0686035-1.3526077-3.0830851-2.824501-3.0830851
				c-1.6511459,0-3.1030655,1.0739841-3.44133,3.0830851H56.9849281z"/>
			<path class="st2" d="M61.1822662,9.2299986c0-0.2786207-0.1592674-0.4377499-0.4377174-0.4377499h-0.8353462V7.6186371h1.4122238
				c0.8552017,0,1.213131,0.358099,1.213131,1.2134228v7.1809711c0,0.2981415,0.1594505,0.4375782,0.4377556,0.4375782h0.835804
				v1.1734715h-1.4127121c-0.855175,0-1.2131386-0.3579578-1.2131386-1.2132816V9.2299986z M61.1423149,3.6403856h1.3129044
				v1.7108192h-1.3129044V3.6403856z"/>
			<path class="st2" d="M65.6976089,15.1775379c0,0,1.1136246,1.5117359,3.0829086,1.5117359
				c1.1141129,0,2.1087646-0.5370922,2.1087646-1.5913582c0-2.1880941-5.6095886-1.7903271-5.6095886-5.0125952
				c0-1.810276,1.5513992-2.7053232,3.5606384-2.7053232c1.0146637,0,3.0433121,0.3979383,3.0433121,1.8101873v0.8551817h-1.2729568
				V9.5680904c0-0.7360039-1.0741272-1.0144796-1.7305145-1.0144796c-1.3925552,0-2.2277603,0.4774446-2.2277603,1.4520864
				c0,2.2477407,5.6093063,1.7305107,5.6093063,5.0525217c0,1.6708651-1.5119019,2.8045244-3.5010071,2.8045244
				c-2.6056976,0-3.838974-1.7503433-3.838974-1.7503433L65.6976089,15.1775379z"/>
			<path class="st2" d="M78.825882,7.3799415c2.7649689,0,4.197197,2.1284213,4.197197,4.614943
				c0,0.2386379-0.0398178,0.6762447-0.0398178,0.6762447h-7.6780472c0.0396423,2.5261612,1.8103027,3.9782219,3.8789139,3.9782219
				c1.8298492,0,3.003746-1.2331142,3.003746-1.2331142l0.6562347,1.0143375c0,0-1.4520569,1.43223-3.7197723,1.43223
				c-2.9639664,0-5.231369-2.1482859-5.231369-5.2313719C73.8929672,9.3492327,76.1405563,7.3799415,78.825882,7.3799415
				 M81.6306915,11.5969715c-0.0795059-2.0686035-1.3527451-3.0830851-2.824646-3.0830851
				c-1.6510315,0-3.1027756,1.0739841-3.4410477,3.0830851H81.6306915z"/>
			<path class="st2" d="M84.7735367,16.7489052l5.6292801-7.0216694c0.3780823-0.4773912,0.7956772-0.9149981,0.7956772-0.9149981
				V8.7723999c0,0-0.3382568,0.0398378-0.9944763,0.0398378h-3.6603012c-0.2781372,0-0.4375839,0.1391525-0.4375839,0.4376068
				v0.775816h-1.2729263V8.8320723c0-0.8553505,0.3579559-1.2134528,1.2134247-1.2134528h6.9421921v0.8951659l-5.6095886,7.0018616
				c-0.3977661,0.4774189-0.8355179,0.914855-0.8355179,0.914855v0.0399551c0,0,0.3582382-0.0399551,1.0146179-0.0399551h4.137558
				c0.27845,0,0.437294-0.1390095,0.437294-0.4374361v-0.7758732h1.2732391v1.1935892
				c0,0.8553524-0.3581009,1.2133102-1.2133102,1.2133102h-7.4195786V16.7489052z"/>
			<path class="st2" d="M95.7537537,9.2299986c0-0.2786207-0.1593018-0.4377499-0.4377213-0.4377499H94.48069V7.6186371h1.4122162
				c0.8551788,0,1.2136002,0.358099,1.2136002,1.2134228v7.1809711c0,0.2981415,0.1589508,0.4375782,0.4372635,0.4375782h0.8354874
				v1.1734715h-1.4122238c-0.8553543,0-1.2132797-0.3579578-1.2132797-1.2132816V9.2299986z M95.7137985,3.6403856h1.3130569
				v1.7108192h-1.3130569V3.6403856z"/>
			<path class="st2" d="M104.645401,7.3799415c2.7645187,0,4.1968842,2.1284213,4.1968842,4.614943
				c0,0.2386379-0.0398102,0.6762447-0.0398102,0.6762447h-7.6780548c0.039505,2.5261612,1.8101349,3.9782219,3.8789139,3.9782219
				c1.8298492,0,3.0036087-1.2331142,3.0036087-1.2331142l0.6563797,1.0143375c0,0-1.4520569,1.43223-3.71978,1.43223
				c-2.9639664,0-5.2315369-2.1482859-5.2315369-5.2313719C99.7120056,9.3492327,101.9597702,7.3799415,104.645401,7.3799415
				 M107.4499054,11.5969715c-0.0795135-2.0686035-1.3527222-3.0830851-2.824646-3.0830851
				c-1.651001,0-3.1027832,1.0739841-3.441185,3.0830851H107.4499054z"/>
			<path class="st2" d="M111.5278854,5.2516408c0-0.2786183-0.1593018-0.4375758-0.4377518-0.4375758h-0.83535V3.6402812h1.4123917
				c0.8551865,0,1.2132797,0.3582697,1.2132797,1.213449v11.1592226c0,0.2982826,0.1591339,0.4377213,0.4376068,0.4377213h0.8353195
				v1.1734695h-1.4122162c-0.8551865,0-1.2132797-0.3579559-1.2132797-1.2134228V5.2516408z"/>
			<path class="st1" d="M38.6998787,23.5554371h-1.2929268v-2.2079277h6.4646568
				c2.645649,0,4.4956207,1.8499699,4.4956207,4.5951347c0,2.7448215-1.8499718,4.6544685-4.4956207,4.6544685h-2.5658875v4.8732433
				h-2.6058426V23.5554371z M43.3943329,28.3693485c1.4720345,0,2.3074112-0.955122,2.3074112-2.4267044
				c0-1.4522324-0.8353767-2.387207-2.2675705-2.387207h-2.1284523v4.8139114H43.3943329z"/>
			<path class="st1" d="M54.5540123,25.0870132c3.1030884,0,5.5694618,2.2079277,5.5694618,5.3110218
				c0,3.1230412-2.4663734,5.3111362-5.5694618,5.3111362c-3.0830917,0-5.549778-2.1880951-5.549778-5.3111362
				C49.0042343,27.2949409,51.4709206,25.0870132,54.5540123,25.0870132 M54.5540123,33.5607719
				c1.6508827,0,3.0234413-1.2728119,3.0234413-3.1627369c0-1.8696651-1.3725586-3.1625957-3.0234413-3.1625957
				c-1.6309967,0-3.0037537,1.2929306-3.0037537,3.1625957C51.5502586,32.2879601,52.9230156,33.5607719,54.5540123,33.5607719"/>
			<path class="st1" d="M62.1922913,23.9333839c0-0.2982826-0.1592712-0.4375782-0.4377251-0.4375782h-0.7957077v-2.1482544
				h2.4070396c0.9348373,0,1.3527222,0.4178867,1.3527222,1.3525486V32.904541c0,0.2784195,0.1590195,0.4376907,0.4373245,0.4376907
				h0.7758179v2.1281662H63.544899c-0.9548378,0-1.3526077-0.397625-1.3526077-1.3526039V23.9333839z"/>
			<path class="st1" d="M72.1778564,25.0870609c2.9039764,0,4.4954758,2.1284218,4.4954758,4.8139114
				c0,0.2981396-0.0597839,0.9348316-0.0597839,0.9348316H69.611824c0.198967,1.7901573,1.511734,2.724987,3.0433044,2.724987
				c1.6310043,0,2.8445892-1.1336021,2.8445892-1.1336021l1.0542984,1.7503471c0,0-1.5516891,1.5316811-4.0777359,1.5316811
				c-3.3616791,0-5.4506073-2.4267044-5.4506073-5.3111343C67.0256729,27.275156,69.134407,25.0870609,72.1778564,25.0870609
				 M74.0875015,29.0853157c-0.0399857-1.2135658-0.8753281-2.0487976-1.9096451-2.0487976
				c-1.2929382,0-2.2079315,0.7758732-2.4863815,2.0487976H74.0875015z"/>
			<path class="st1" d="M79.1199265,27.9118443c0-0.2985668-0.158989-0.4377213-0.4377518-0.4377213h-0.7953644v-2.1484261
				h2.3273926c0.8948517,0,1.332428,0.4178867,1.332428,1.1339436v0.2984257c0,0.2188034-0.0395279,0.4377499-0.0395279,0.4377499
				h0.0395279c0.4377518-0.8556366,1.5317078-2.1087284,3.580658-2.1087284c2.2479019,0,3.5408096,1.1736126,3.5408096,3.8590736
				v3.9584179c0,0.2784462,0.158844,0.4375763,0.4375839,0.4375763h0.7953873v2.1282806h-2.4065781
				c-0.9549866,0-1.3527298-0.3975983-1.3527298-1.3527222v-4.6544666c0-1.2332859-0.318428-2.0687752-1.5915222-2.0687752
				c-1.3522873,0-2.3668823,0.8553524-2.7249908,2.0687752c-0.1394653,0.4179173-0.198822,0.8753014-0.198822,1.3527489v4.6544399
				h-2.5065002V27.9118443z"/>
		</g>
	</g>
</g>
</svg>
