<?xml version="1.0" encoding="utf-8"?>
<!-- Generator: Adobe Illustrator 22.0.1, SVG Export Plug-In . SVG Version: 6.00 Build 0)  -->
<svg version="1.1" id="Layer_1" xmlns="http://www.w3.org/2000/svg" xmlns:xlink="http://www.w3.org/1999/xlink" x="0px" y="0px"
	 viewBox="0 0 24 24" style="enable-background:new 0 0 24 24;" xml:space="preserve">
<style type="text/css">
	.st0{fill:#FFFFFF;}
</style>
<path class="st0" d="M12,0C5.3729858,0,0,5.3729858,0,12s5.3729858,12,12,12s12-5.3729858,12-12S18.6270142,0,12,0z
	 M6.6306763,3.9862061c0.5561523-0.6013184,3.5609741-1.4337769,4.3464966-1.2496338
	c0.2763062,0.0469971,0.4153442,0.2311401,0.5074463,0.4622803c0.046936,0.2781372,0.4171143,5.7785034,0.4622803,7.0281372
	c0.0938721,1.1087646-0.3684082,1.2478027-0.5074463,1.2929077c-0.1390381,0.0469971-0.6013184,0.1860352-1.1557007-0.7385254
	c0,0-3.7451782-5.9645386-3.8372803-6.1486816C6.3995361,4.4484863,6.4464722,4.1704102,6.6306763,3.9862061z M5.2907715,15.6804199
	c-0.0921021-0.1841431-0.1390381-0.4622803-0.1842041-0.7855225c-0.0938721-1.0166016,0-2.5425415,0.3232422-3.0048218
	c0.1390381-0.2311401,0.3701782-0.3231812,0.5543823-0.3231812c0.1390381,0,0.2780762,0.046936,3.2828979,1.2947388
	l0.8776245,0.3701782c0.3232422,0.137207,0.5092163,0.4622803,0.5092163,0.8306274
	c0,0.3701782-0.2311401,0.6483154-0.5561523,0.7404175l-1.2478027,0.4152832
	c-2.7736816,0.8324585-2.8657837,0.8324585-3.0048218,0.8324585C5.6140137,16.0505981,5.4298096,15.9115601,5.2907715,15.6804199z
	 M11.9938354,17.7155762c0,2.9127197,0,3.0048218-0.046936,3.1438599c-0.0921021,0.2311401-0.2763062,0.3683472-0.5074463,0.4152832
	c-0.7403564,0.1390991-3.0517578-0.7403564-3.5592041-1.2947388c-0.0938721-0.1390381-0.1390381-0.2311401-0.1859741-0.3701782
	c0-0.0921021,0-0.1842041,0.046936-0.2762451c0.045166-0.1390991,0.1390381-0.2781372,2.2192993-2.7285767l0.5995483-0.7385254
	c0.1859741-0.2781372,0.6013184-0.3232422,0.9245605-0.2311401c0.3250122,0.1390381,0.5561523,0.4152832,0.5092163,0.7385254
	C11.9938354,16.4207764,11.9938354,17.7155762,11.9938354,17.7155762z M16.5245361,19.7958374
	c-0.2311401,0.092041-0.4622803,0.092041-0.6483154-0.0921021c-0.137207-0.0939331-0.2311401-0.2781372-1.8942261-2.9597168
	l-0.5092163-0.7854614c-0.1842041-0.2781372-0.1390991-0.6464844,0.092041-0.9715576
	c0.2311401-0.2762451,0.5562134-0.3683472,0.8794556-0.2762451l1.2478027,0.4152832
	c2.7736816,0.9245605,2.8657837,0.9245605,2.9578247,1.0166626c0.1860352,0.2311401,0.2781372,0.4622803,0.2311401,0.6934204
	C18.7890015,17.5764771,17.2630615,19.5177002,16.5245361,19.7958374z M18.9280396,11.5668945
	c0,0.2780762-0.0921021,0.4622803-0.2781372,0.6013184c-0.137207,0.0921021-0.2311401,0.1390381-3.420105,0.8775635
	c-0.5092773,0.1390991-0.7855225,0.1860352-0.9245605,0.2311401v-0.045105
	c-0.2781372,0.137207-0.6464844-0.046936-0.8324585-0.3250732c-0.1842041-0.2762451-0.1842041-0.6464233,0-0.8775635
	l0.7854614-1.0636597c1.664978-2.3114014,1.7570801-2.4504395,1.8961182-2.4955444
	c0.1841431-0.1390381,0.4152832-0.1390381,0.6464233-0.0469971c0.6483154,0.3232422,2.0351562,2.3583984,2.1272583,3.0969238
	C18.9280396,11.5198975,18.9280396,11.5198975,18.9280396,11.5668945z"/>
</svg>
